<svg width="592" height="48" viewBox="0 0 592 48" fill="none" xmlns="http://www.w3.org/2000/svg">
<path fill-rule="evenodd" clip-rule="evenodd" d="M240.4 19.7806H245.6V22.1116C246.349 20.771 248.27 19.5664 251.155 19.5664C256.687 19.5664 258 22.2351 258 27.1314V36.1997H252.4V28.2465C252.4 25.4582 251.651 23.8857 249.744 23.8857C247.099 23.8857 246 25.5804 246 28.2453V36.1997H240.4V19.7806V19.7806Z" fill="#E3E4E6" fill-opacity="0.55"/>
<path fill-rule="evenodd" clip-rule="evenodd" d="M230.799 35.9855H236.399V19.5664H230.799V35.9855V35.9855Z" fill="#E3E4E6" fill-opacity="0.55"/>
<path fill-rule="evenodd" clip-rule="evenodd" d="M237.2 14.213C237.2 14.6354 237.107 15.0537 236.926 15.4435C236.745 15.8333 236.48 16.1868 236.146 16.4835C235.469 17.0891 234.553 17.4281 233.598 17.426C232.645 17.4254 231.731 17.0873 231.053 16.4848C230.72 16.1871 230.456 15.8331 230.275 15.4433C230.094 15.0535 230.001 14.6354 230 14.213C230 13.36 230.378 12.5435 231.054 11.9412C231.732 11.3379 232.646 10.9996 233.599 11C234.554 11 235.47 11.3389 236.146 11.9412C236.821 12.5435 237.2 13.36 237.2 14.213Z" fill="#E3E4E6" fill-opacity="0.55"/>
<path d="M154 19.4512V30.85C154 32.0122 153.555 33.1303 152.757 33.9751C151.959 34.8199 150.868 35.3272 149.708 35.393L149.45 35.4H130.55C129.388 35.4 128.27 34.9554 127.425 34.1572C126.58 33.3591 126.073 32.2679 126.007 31.1076L126 30.85V19.4512L139.513 26.5296C139.663 26.6083 139.83 26.6494 140 26.6494C140.17 26.6494 140.337 26.6083 140.487 26.5296L154 19.4512Z" fill="#E3E4E6" fill-opacity="0.55"/>
<path d="M130.549 13H149.449C150.577 12.9999 151.665 13.4186 152.501 14.175C153.338 14.9314 153.864 15.9715 153.977 17.0936L139.999 24.4156L126.021 17.0936C126.13 16.016 126.619 15.0125 127.402 14.2634C128.184 13.5144 129.207 13.0689 130.289 13.007L130.549 13H149.449H130.549Z" fill="#E3E4E6" fill-opacity="0.55"/>
<path fill-rule="evenodd" clip-rule="evenodd" d="M336 15.4286C336 13.535 337.535 12 339.429 12H340.996C341.979 12 342.837 12.6692 343.075 13.6231L344.339 18.6782C344.548 19.5146 344.235 20.3949 343.546 20.9122L342.067 22.021C341.914 22.1362 341.88 22.3048 341.923 22.4225C343.221 25.9651 346.035 28.7788 349.578 30.0766C349.695 30.1197 349.864 30.0863 349.979 29.9328L351.088 28.4544C351.605 27.7646 352.485 27.4521 353.322 27.6612L358.377 28.925C359.331 29.1635 360 30.0206 360 31.0039V32.5714C360 34.465 358.465 36 356.571 36H354C344.059 36 336 27.9411 336 18V15.4286Z" fill="#E3E4E6" fill-opacity="0.55"/>
<path d="M461.92 14.0741C460.63 12.7776 459.093 11.7496 457.4 11.0502C455.706 10.3507 453.89 9.99373 452.056 10.0001C444.374 10.0001 438.113 16.2301 438.113 23.874C438.113 26.324 438.76 28.704 439.97 30.804L438 38L445.387 36.068C447.427 37.174 449.721 37.762 452.056 37.762C459.739 37.762 466 31.532 466 23.888C466 20.1781 464.551 16.6921 461.92 14.0741ZM452.056 35.41C449.974 35.41 447.934 34.85 446.147 33.8L445.725 33.548L441.335 34.696L442.503 30.44L442.221 30.006C441.064 28.1678 440.45 26.043 440.448 23.874C440.448 17.5181 445.654 12.3381 452.042 12.3381C455.138 12.3381 458.05 13.5421 460.231 15.7261C461.311 16.7956 462.167 18.0678 462.749 19.4688C463.331 20.8699 463.628 22.372 463.622 23.888C463.65 30.244 458.444 35.41 452.056 35.41ZM458.416 26.786C458.064 26.618 456.348 25.778 456.038 25.652C455.715 25.54 455.489 25.484 455.25 25.82C455.011 26.17 454.35 26.954 454.153 27.178C453.956 27.416 453.745 27.444 453.393 27.262C453.041 27.094 451.916 26.716 450.593 25.54C449.552 24.616 448.862 23.482 448.651 23.132C448.454 22.782 448.623 22.6 448.806 22.418C448.961 22.264 449.158 22.012 449.327 21.816C449.495 21.62 449.566 21.466 449.678 21.242C449.791 21.004 449.735 20.8081 449.65 20.6401C449.566 20.4721 448.862 18.7641 448.581 18.0641C448.299 17.3921 448.004 17.4761 447.793 17.4621H447.118C446.878 17.4621 446.513 17.5461 446.189 17.8961C445.879 18.2461 444.979 19.0861 444.979 20.7941C444.979 22.502 446.231 24.154 446.4 24.378C446.569 24.616 448.862 28.116 452.352 29.614C453.182 29.978 453.829 30.188 454.336 30.342C455.166 30.608 455.926 30.566 456.531 30.482C457.206 30.384 458.599 29.642 458.88 28.83C459.176 28.018 459.176 27.332 459.077 27.178C458.979 27.024 458.768 26.954 458.416 26.786Z" fill="#E3E4E6" fill-opacity="0.55"/>
</svg>
